<svg xmlns="http://www.w3.org/2000/svg" width="214.17" height="45" viewBox="0 0 214.17 45">
  <g id="Grupo_1322" data-name="Grupo 1322" transform="translate(-855 -25)">
    <g id="Grupo_1318" data-name="Grupo 1318" transform="translate(0.169)">
      <g id="Grupo_1316" data-name="Grupo 1316" transform="translate(809.5 -315.831)">
        <path id="Trazado_182" data-name="Trazado 182" d="M60.516,371.339H55.823a1.24,1.24,0,0,1-.835-1.348c.033-.769.01-1.541.007-2.311a1.036,1.036,0,0,0-.77-1.089q-1.215-.477-2.413-1a1,1,0,0,0-1.282.217c-.588.582-1.168,1.174-1.758,1.754a1.108,1.108,0,0,1-1.7,0q-1.4-1.385-2.781-2.781a1.114,1.114,0,0,1,0-1.727c.582-.589,1.173-1.169,1.754-1.758a1,1,0,0,0,.209-1.254q-.523-1.214-1.008-2.445a1.04,1.04,0,0,0-1.069-.754c-.736,0-1.474-.036-2.207.009a1.381,1.381,0,0,1-1.465-.768v-4.831a1.378,1.378,0,0,1,1.465-.768c.722.045,1.449.012,2.173.01a1.05,1.05,0,0,0,1.116-.783q.466-1.2.983-2.381a1.016,1.016,0,0,0-.218-1.312c-.575-.58-1.156-1.154-1.731-1.734a1.114,1.114,0,0,1,0-1.727q1.374-1.383,2.757-2.758a1.12,1.12,0,0,1,1.753,0c.573.566,1.138,1.14,1.709,1.707a1.026,1.026,0,0,0,1.34.227q1.164-.511,2.349-.972a1.068,1.068,0,0,0,.8-1.141c0-.817,0-1.633,0-2.45A1.074,1.074,0,0,1,56.15,336q2.019,0,4.037,0a1.075,1.075,0,0,1,1.155,1.166c0,.84,0,1.679,0,2.519a1.032,1.032,0,0,0,.764,1.059c.8.312,1.6.635,2.381.982a1.029,1.029,0,0,0,1.341-.22c.572-.567,1.138-1.139,1.709-1.707a1.122,1.122,0,0,1,1.753-.007q1.371,1.361,2.733,2.733a1.129,1.129,0,0,1,.005,1.779c-.542.547-1.09,1.09-1.634,1.635a1.06,1.06,0,0,0-.251,1.476c.334.741.64,1.5.928,2.256a1.074,1.074,0,0,0,1.16.822c.817,0,1.633,0,2.45,0a1.072,1.072,0,0,1,1.153,1.133q.006,2.036,0,4.072a1.072,1.072,0,0,1-1.146,1.141c-.84,0-1.679,0-2.519,0a1.037,1.037,0,0,0-1.084.777q-.468,1.2-.983,2.382a1.01,1.01,0,0,0,.212,1.312c.575.58,1.157,1.153,1.731,1.734a1.115,1.115,0,0,1,.01,1.729q-1.383,1.4-2.782,2.782a1.114,1.114,0,0,1-1.728-.015c-.572-.567-1.138-1.14-1.709-1.707a1.036,1.036,0,0,0-1.37-.218q-1.145.51-2.317.956a1.071,1.071,0,0,0-.808,1.136c0,.759-.026,1.519.007,2.277A1.241,1.241,0,0,1,60.516,371.339Zm6.9-17.67a9.249,9.249,0,1,0-9.267,9.25A9.285,9.285,0,0,0,67.419,353.669Z" transform="translate(4.831 4.831)" fill="#3e4074"/>
        <path id="Trazado_183" data-name="Trazado 183" d="M191.74,499.342c1.553-1.553,3.04-3.06,4.556-4.538a2.074,2.074,0,0,1,.964-.539,1.27,1.27,0,0,1,1.405.66,1.376,1.376,0,0,1-.058,1.562,2.419,2.419,0,0,1-.314.354q-2.665,2.669-5.334,5.335a1.488,1.488,0,0,1-2.419-.008q-1.259-1.257-2.516-2.517a1.441,1.441,0,1,1,2.01-2.041C190.594,498.168,191.142,498.735,191.74,499.342Z" transform="translate(-130.178 -140.011)" fill="#3e4074"/>
      </g>
      <text id="Instaladores" transform="translate(895 54)" fill="#3e4074" font-size="28" font-family="Gotham-Bold, Gotham" font-weight="700"><tspan x="0" y="0">Instaladores</tspan></text>
    </g>
    <text id="By_PAS-HQ" data-name="By PAS-HQ" transform="translate(1007 67)" fill="#3e4074" font-size="12" font-family="Helvetica-Light, Helvetica" font-weight="300"><tspan x="0" y="0">By PAS-HQ</tspan></text>
  </g>
</svg>
